<?xml version="1.0" encoding="UTF-8" standalone="no"?>
<!-- Created with Inkscape (http://www.inkscape.org/) -->

<svg xmlns:dc="http://purl.org/dc/elements/1.1/" xmlns:cc="http://creativecommons.org/ns#" xmlns:rdf="http://www.w3.org/1999/02/22-rdf-syntax-ns#" xmlns:svg="http://www.w3.org/2000/svg" xmlns="http://www.w3.org/2000/svg" xmlns:xlink="http://www.w3.org/1999/xlink" xmlns:sodipodi="http://sodipodi.sourceforge.net/DTD/sodipodi-0.dtd" xmlns:inkscape="http://www.inkscape.org/namespaces/inkscape" width="705.08649" height="705.08649" id="svg6257" version="1.1" inkscape:version="0.48.4 r9939" sodipodi:docname="Tux_2014.svg" inkscape:export-filename="/media/Work/Land of Colors/Creation/Community/Logos/Linux 2014/Tux_2014.png" inkscape:export-xdpi="90" inkscape:export-ydpi="90">
   <defs id="defs6259">
      <clipPath clipPathUnits="userSpaceOnUse" id="clipPath6985">
         <path sodipodi:nodetypes="sssssssss" inkscape:connector-curvature="0" inkscape:original-d="m 302.71545,766.98404 c 0,34.23658 -52.73737,-1.20004 -45.96783,38.85922 78.33226,463.53694 -47.46678,-4.62264 -47.46678,-38.85922 0,-20.07238 6.44203,-43.72871 21.36423,-69.78469 3.62478,-6.32931 0.96666,-12.30791 3.16914,-17.66198 4.1957,-10.19948 10.34014,-18.98767 22.18394,-18.98767 11.16087,0 17.91264,8.9505 22.18393,18.98767 2.32144,5.45517 -0.54482,11.63809 3.16914,17.66198 16.18151,26.24578 21.36423,49.05807 21.36423,69.78469 z" id="path6987" d="m 302.71545,766.98404 c -1.23749,10.88804 -7.10172,21.08268 -15.57946,28.02595 -8.47773,6.94326 -19.43156,10.66229 -30.38837,10.83327 -11.21187,0.17496 -22.53537,-3.37022 -31.32277,-10.33572 -8.7874,-6.9655 -14.88757,-17.38088 -16.14401,-28.5235 -1.37723,-12.21387 2.89627,-24.33719 7.95707,-35.53825 5.0608,-11.20106 11.03782,-22.18569 13.40716,-34.24644 1.154,-5.87423 1.43314,-11.93271 3.16914,-17.66198 1.51253,-4.99176 4.16999,-9.69931 8.02225,-13.21576 3.85227,-3.51646 8.94581,-5.77186 14.16169,-5.77191 5.21591,-5e-5 10.30953,2.25528 14.16183,5.77174 3.85229,3.51646 6.50974,8.22409 8.0221,13.21593 1.7358,5.72933 2.01458,11.78787 3.16914,17.66198 2.37062,12.06106 8.35283,23.04404 13.41599,34.24464 5.06317,11.20059 9.33634,23.32685 7.94824,35.54005" style="color:black;fill:#3a5069;fill-opacity:1;fill-rule:nonzero;stroke:none;stroke-width:25;marker:none;visibility:visible;display:inline;overflow:visible;enable-background:accumulate" />
      </clipPath>
      <inkscape:path-effect effect="spiro" id="path-effect6155" is_visible="true" />
      <inkscape:path-effect effect="spiro" id="path-effect6338" is_visible="true" />
      <inkscape:path-effect effect="spiro" id="path-effect6341" is_visible="true" />
   </defs>
   <sodipodi:namedview id="base" pagecolor="#ffffff" bordercolor="#666666" borderopacity="1.0" inkscape:pageopacity="0.0" inkscape:pageshadow="2" inkscape:zoom="0.49497475" inkscape:cx="220.1666" inkscape:cy="371.91003" inkscape:document-units="px" inkscape:current-layer="layer1" showgrid="false" fit-margin-top="0" fit-margin-left="0" fit-margin-right="0" fit-margin-bottom="0" inkscape:window-width="1366" inkscape:window-height="741" inkscape:window-x="0" inkscape:window-y="27" inkscape:window-maximized="1" />
   <metadata id="metadata6262">
      <rdf:RDF>
         <cc:Work rdf:about="">
            <dc:format>image/svg+xml</dc:format>
            <dc:type rdf:resource="http://purl.org/dc/dcmitype/StillImage" />
            <dc:title></dc:title>
         </cc:Work>
      </rdf:RDF>
   </metadata>
   <g inkscape:label="Layer 1" inkscape:groupmode="layer" id="layer1" transform="translate(-16.162439,-270.50412)">
      <use height="512" width="512" transform="matrix(-1,0,0,1,326.71068,3.9950208)" id="use6314" xlink:href="#path6946" y="0" x="0" />
      <g id="g6602" transform="matrix(1.2545697,0,0,1.2545697,-77.092228,-144.66852)">
         <path style="color:black;fill:#3a5069;fill-opacity:1;fill-rule:nonzero;stroke:none;stroke-width:25;marker:none;visibility:visible;display:inline;overflow:visible;enable-background:accumulate" d="m 515.33577,727.64461 c -4.23828,37.29063 -24.32281,72.20641 -53.35833,95.9865 -29.03553,23.78009 -66.55148,36.51747 -104.07762,37.10304 -38.39969,0.5992 -77.18172,-11.54274 -107.27782,-35.39897 -30.0961,-23.85624 -50.98867,-59.52805 -55.29186,-97.69057 -4.7169,-41.83147 9.91949,-83.35282 27.2523,-121.71549 17.33281,-38.36267 37.80359,-75.98413 45.91838,-117.29116 3.95233,-20.11873 4.90838,-40.86852 10.85402,-60.49079 5.18027,-17.09635 14.28187,-33.21932 27.47554,-45.26288 13.19367,-12.04356 30.63864,-19.76812 48.50258,-19.76829 17.86404,-1.7e-4 35.30928,7.72416 48.50306,19.76774 13.19379,12.04358 22.29531,28.16681 27.47502,45.26343 5.94496,19.62246 6.89976,40.37246 10.85404,60.49079 8.11916,41.3081 28.60773,78.9239 45.94865,117.28498 17.34092,38.36108 31.97615,79.89251 27.22204,121.72167" id="path6306" inkscape:path-effect="#path-effect6341" inkscape:original-d="m 515.33577,727.64461 c 0,117.25739 -180.62103,-4.11003 -157.43595,133.08954 C 626.18121,2448.3088 195.33014,844.902 195.33014,727.64461 c 0,-68.7462 22.06339,-149.76713 73.17068,-239.00665 12.41456,-21.67734 3.31072,-42.15356 10.85402,-60.49079 14.36993,-34.93236 35.41411,-65.03117 75.97812,-65.03117 38.22504,0 61.34926,30.65472 75.97808,65.03117 7.95073,18.68349 -1.86597,39.85948 10.85404,60.49079 55.42032,89.88958 73.17069,168.01974 73.17069,239.00665 z" inkscape:connector-curvature="0" sodipodi:nodetypes="sssssssss" />
         <path sodipodi:nodetypes="sssssssss" inkscape:connector-curvature="0" inkscape:original-d="m 472.91466,753.00686 c 0,86.1646 -9.9976,84.89437 -117.57536,84.89437 -107.57779,0 -117.57539,1.27023 -117.57539,-84.89437 0,-50.51695 -6.198,-77.09055 39.66065,-157.16544 11.13968,-19.45117 2.97074,-37.8245 9.73934,-54.27858 12.8942,-31.34491 39.80889,-78.04177 68.99481,-78.04177 27.50304,0 54.22946,47.19568 67.35595,78.04177 7.13421,16.76478 -1.6743,35.76608 9.73936,54.27858 49.72879,80.65817 39.66064,105.0019 39.66064,157.16544 z" inkscape:path-effect="#path-effect6338" id="path6308" d="m 472.91466,753.00686 c -5.23271,25.64745 -21.70587,48.41235 -43.33213,63.15948 -21.62625,14.74714 -48.06742,21.73353 -74.24323,21.73489 -26.17675,0.001 -52.61985,-6.98294 -74.24716,-21.73018 -21.62732,-14.74724 -38.10034,-37.5148 -43.32823,-63.16419 -5.46765,-26.82571 1.32136,-54.66272 10.93305,-80.29725 9.6117,-25.63452 22.10951,-50.3029 28.7276,-76.86819 4.44479,-17.84159 6.15802,-36.24382 9.73934,-54.27858 3.6777,-18.52008 9.53849,-37.05634 20.95377,-52.09663 5.70764,-7.52015 12.7764,-14.07145 20.99445,-18.71832 8.21805,-4.64686 17.60648,-7.34537 27.04659,-7.22682 9.31614,0.117 18.51411,2.97422 26.54104,7.70419 8.02693,4.72997 14.90413,11.29157 20.45089,18.7774 11.09352,14.97166 16.76416,33.27746 20.36402,51.56018 3.55219,18.04062 5.28333,36.43969 9.73936,54.27858 6.63492,26.56168 19.13505,51.22839 28.7441,76.86452 9.60905,25.63613 16.38954,53.47572 10.91654,80.30092" style="color:black;fill:#fcf9ee;fill-opacity:1;fill-rule:nonzero;stroke:none;stroke-width:25;marker:none;visibility:visible;display:inline;overflow:visible;enable-background:accumulate" />
         <path sodipodi:nodetypes="scscs" style="color:black;fill:#ffee71;fill-opacity:1;fill-rule:nonzero;stroke:none;stroke-width:25;marker:none;visibility:visible;display:inline;overflow:visible;enable-background:accumulate" d="m 355.0172,445.62948 c -22.15347,0 -42.32766,8.95774 -55.9807,23.20878 13.65304,14.25095 33.82723,28.84767 55.9807,28.84767 22.15342,0 41.77109,-14.59672 55.42417,-28.84767 -13.65308,-14.25104 -33.27075,-23.20878 -55.42417,-23.20878 z" id="path6310" inkscape:connector-curvature="0" />
         <g transform="matrix(3.4249153,0,0,3.4249153,-521.43902,-1899.2108)" id="g6316">
            <path style="color:black;fill:none;stroke:#3a5069;stroke-width:3;stroke-opacity:1;marker:none;visibility:visible;display:inline;overflow:visible;enable-background:accumulate" d="m 302.71545,766.98404 c -1.23749,10.88804 -7.10172,21.08268 -15.57946,28.02595 -8.47773,6.94326 -19.43156,10.66229 -30.38837,10.83327 -11.21187,0.17496 -22.53537,-3.37022 -31.32277,-10.33572 -8.7874,-6.9655 -14.88757,-17.38088 -16.14401,-28.5235 -1.37723,-12.21387 2.89627,-24.33719 7.95707,-35.53825 5.0608,-11.20106 11.03782,-22.18569 13.40716,-34.24644 1.154,-5.87423 1.43314,-11.93271 3.16914,-17.66198 1.51253,-4.99176 4.16999,-9.69931 8.02225,-13.21576 3.85227,-3.51646 8.94581,-5.77186 14.16169,-5.77191 5.21591,-5e-5 10.30953,2.25528 14.16183,5.77174 3.85229,3.51646 6.50974,8.22409 8.0221,13.21593 1.7358,5.72933 2.01458,11.78787 3.16914,17.66198 2.37062,12.06106 8.35283,23.04404 13.41599,34.24464 5.06317,11.20059 9.33634,23.32685 7.94824,35.54005" id="path6318" inkscape:path-effect="#path-effect6155" inkscape:original-d="m 302.71545,766.98404 c 0,34.23658 -52.73737,-1.20004 -45.96783,38.85922 78.33226,463.53694 -47.46678,-4.62264 -47.46678,-38.85922 0,-20.07238 6.44203,-43.72871 21.36423,-69.78469 3.62478,-6.32931 0.96666,-12.30791 3.16914,-17.66198 4.1957,-10.19948 10.34014,-18.98767 22.18394,-18.98767 11.16087,0 17.91264,8.9505 22.18393,18.98767 2.32144,5.45517 -0.54482,11.63809 3.16914,17.66198 16.18151,26.24578 21.36423,49.05807 21.36423,69.78469 z" inkscape:connector-curvature="0" sodipodi:nodetypes="sssssssss" />
         </g>
         <g transform="matrix(3.4249153,0,0,3.4249153,-523.03336,-1899.2108)" id="g6320" clip-path="url(#clipPath6985)">
            <path sodipodi:nodetypes="szsssss" inkscape:connector-curvature="0" id="path6322" d="m 243.44596,778.55634 c 2.10351,7.48646 3.35458,24.25437 -6.99406,27.16195 -10.34866,2.90758 -18.01348,-12.05827 -20.11692,-19.54478 -0.90865,-3.23426 6.61424,-1.55975 7.17665,-3.61482 0.73945,-2.70192 -0.0459,-6.7312 4.2064,-7.92595 4.00201,-1.12441 5.33268,2.96542 7.31322,4.68936 1.72442,1.50098 7.43572,-4.25022 8.41471,-0.76576 z" style="color:black;fill:#ffee71;fill-opacity:1;fill-rule:nonzero;stroke:none;stroke-width:2;marker:none;visibility:visible;display:inline;overflow:visible;enable-background:accumulate" />
            <use height="512" width="512" transform="matrix(-1,0,0,1,512,-2.3092842e-8)" id="use6324" xlink:href="#path6179" y="0" x="0" />
            <path style="color:black;fill:#ffee71;fill-opacity:1;fill-rule:nonzero;stroke:none;stroke-width:2;marker:none;visibility:visible;display:inline;overflow:visible;enable-background:accumulate" d="m 269.48506,778.55634 c -2.10351,7.48646 -3.35458,24.25437 6.99406,27.16195 10.34866,2.90758 18.01348,-12.05827 20.11692,-19.54478 0.90865,-3.23426 -6.61424,-1.55975 -7.17665,-3.61482 -0.73945,-2.70192 0.0459,-6.7312 -4.2064,-7.92595 -4.00201,-1.12441 -5.33268,2.96542 -7.31322,4.68936 -1.72442,1.50098 -7.43572,-4.25022 -8.41471,-0.76576 z" id="path6598" inkscape:connector-curvature="0" sodipodi:nodetypes="szsssss" />
         </g>
         <path style="color:black;fill:#fff5a6;fill-opacity:1;fill-rule:nonzero;stroke:none;stroke-width:25;marker:none;visibility:visible;display:inline;overflow:visible;enable-background:accumulate" d="m 355.0172,445.62948 c -30.54084,1.04604 -45.15432,13.26843 -55.97687,23.23 17.93941,0 23.17534,14.54912 55.97687,14.54912 32.80149,0 38.58219,-14.54912 55.42802,-14.54912 -11.10153,-12.60982 -33.57916,-23.97834 -55.42802,-23.23 z" id="path6326" inkscape:connector-curvature="0" sodipodi:nodetypes="sczcs" />
         <g id="g6617" transform="translate(0.59609767,0)">
            <path sodipodi:nodetypes="cssscc" inkscape:connector-curvature="0" id="path6312" d="m 272.12075,608.67203 c 0,0 -18.4779,36.48121 -18.4779,63.26501 0,26.69644 22.4575,37.80394 15.38123,49.18846 -12.03461,19.36157 -61.9194,5.14339 -57.67742,-52.58465 3.7264,-50.7122 11.68923,-47.41714 11.68923,-47.41714 z" style="fill:#3a5069;fill-opacity:1;stroke:none" />
            <path style="fill:#3a5069;fill-opacity:1;stroke:none" d="m 437.36566,608.67203 c 0,0 18.4779,36.48121 18.4779,63.26501 0,26.69644 -22.4575,37.80394 -15.38123,49.18846 12.03461,19.36157 61.9194,5.14339 57.67742,-52.58465 -3.7264,-50.7122 -11.68923,-47.41714 -11.68923,-47.41714 z" id="path6615" inkscape:connector-curvature="0" sodipodi:nodetypes="cssscc" />
         </g>
      </g>
      <rect style="color:black;fill:black;fill-opacity:0;fill-rule:nonzero;stroke:none;stroke-width:5;marker:none;visibility:visible;display:inline;overflow:visible;enable-background:accumulate" id="rect6600" width="705.08649" height="705.08649" x="16.162439" y="270.50412" />
   </g>
</svg>
